<svg width="43" height="43" viewBox="0 0 43 43" fill="none" xmlns="http://www.w3.org/2000/svg">
<path d="M21.5 21.5C19.5292 21.5 17.842 20.7983 16.4385 19.3948C15.0351 17.9913 14.3333 16.3042 14.3333 14.3333C14.3333 12.3625 15.0351 10.6754 16.4385 9.27188C17.842 7.86841 19.5292 7.16667 21.5 7.16667C23.4708 7.16667 25.158 7.86841 26.5615 9.27188C27.9649 10.6754 28.6667 12.3625 28.6667 14.3333C28.6667 16.3042 27.9649 17.9913 26.5615 19.3948C25.158 20.7983 23.4708 21.5 21.5 21.5ZM7.16666 35.8333V30.8167C7.16666 29.8014 7.42795 28.8682 7.95052 28.0172C8.47309 27.1662 9.16736 26.5167 10.0333 26.0688C11.8847 25.1431 13.766 24.4488 15.6771 23.9859C17.5882 23.5231 19.5292 23.2917 21.5 23.2917C23.4708 23.2917 25.4118 23.5231 27.3229 23.9859C29.234 24.4488 31.1153 25.1431 32.9667 26.0688C33.8326 26.5167 34.5269 27.1662 35.0495 28.0172C35.572 28.8682 35.8333 29.8014 35.8333 30.8167V35.8333H7.16666ZM10.75 32.25H32.25V30.8167C32.25 30.4882 32.1679 30.1896 32.0036 29.9208C31.8394 29.6521 31.6229 29.4431 31.3542 29.2938C29.7417 28.4875 28.1142 27.8828 26.4719 27.4797C24.8295 27.0766 23.1722 26.875 21.5 26.875C19.8278 26.875 18.1705 27.0766 16.5281 27.4797C14.8858 27.8828 13.2583 28.4875 11.6458 29.2938C11.3771 29.4431 11.1606 29.6521 10.9964 29.9208C10.8321 30.1896 10.75 30.4882 10.75 30.8167V32.25ZM21.5 17.9167C22.4854 17.9167 23.329 17.5658 24.0307 16.8641C24.7325 16.1623 25.0833 15.3188 25.0833 14.3333C25.0833 13.3479 24.7325 12.5043 24.0307 11.8026C23.329 11.1009 22.4854 10.75 21.5 10.75C20.5146 10.75 19.671 11.1009 18.9693 11.8026C18.2675 12.5043 17.9167 13.3479 17.9167 14.3333C17.9167 15.3188 18.2675 16.1623 18.9693 16.8641C19.671 17.5658 20.5146 17.9167 21.5 17.9167Z" fill="#FEF7FF"/>
</svg>
